<?xml version="1.0" standalone="no"?>
<!DOCTYPE svg PUBLIC "-//W3C//DTD SVG 20010904//EN"
 "http://www.w3.org/TR/2001/REC-SVG-20010904/DTD/svg10.dtd">
<svg version="1.0" xmlns="http://www.w3.org/2000/svg"
 width="387.000000pt" height="387.000000pt" viewBox="0 0 387.000000 387.000000"
 preserveAspectRatio="xMidYMid meet">
<metadata>
Created by potrace 1.11, written by Peter Selinger 2001-2013
</metadata>
<g transform="translate(0.000000,387.000000) scale(0.100000,-0.100000)"
fill="#000000" stroke="none">
<path d="M100 2008 l0 -1078 208 0 c401 0 555 27 762 130 487 244 690 906 440
1435 -54 115 -99 182 -172 261 -118 125 -261 216 -433 273 -130 43 -216 52
-528 54 l-277 2 0 -1077z m650 924 c474 -106 758 -511 718 -1021 -32 -397
-274 -696 -653 -806 -99 -28 -259 -44 -457 -45 l-118 0 0 951 0 952 213 -6
c155 -4 235 -11 297 -25z"/>
<path d="M2740 2015 c0 -586 0 -1068 0 -1072 0 -5 30 -8 68 -8 l67 0 3 508 2
507 33 0 c29 0 37 -8 94 -93 58 -86 99 -146 278 -407 39 -58 136 -198 214
-313 l142 -207 75 0 c41 0 74 4 74 8 0 5 -35 59 -77 120 -43 61 -150 216 -238
343 -88 128 -195 282 -237 343 -43 61 -91 132 -107 158 l-30 46 72 7 c95 10
229 49 295 87 238 136 323 489 185 763 -38 74 -136 166 -223 210 -106 53 -183
64 -457 65 l-233 0 0 -1065z m520 920 c161 -37 245 -114 292 -268 17 -57 20
-87 16 -176 -4 -94 -8 -115 -35 -172 -52 -106 -120 -166 -235 -206 -65 -23
-93 -27 -245 -31 l-173 -4 0 442 0 443 153 -6 c88 -3 183 -12 227 -22z"/>
<path d="M2060 1132 c-58 -28 -76 -127 -32 -176 22 -24 66 -46 92 -46 54 0
120 65 120 118 0 43 -31 94 -66 108 -43 18 -71 17 -114 -4z"/>
</g>
</svg>
